<svg width="409" height="113" viewBox="0 0 409 113" fill="none" xmlns="http://www.w3.org/2000/svg">
<path d="M30 60V12H12C8.625 12 5.78125 10.8437 3.46875 8.5312C1.15625 6.1562 0 3.3125 0 0H72C72 3.375 70.8125 6.2188 68.4375 8.5312C66.0625 10.8437 63.25 12 60 12H42V60H30ZM96 60C92.625 60 89.7812 58.8438 87.4688 56.5312C85.1562 54.1562 84 51.3125 84 48H156C156 51.375 154.812 54.2188 152.438 56.5312C150.062 58.8438 147.25 60 144 60H96ZM96 36C92.625 36 89.7812 34.8438 87.4688 32.5312C85.1562 30.1562 84 27.3125 84 24H156C156 27.375 154.812 30.2188 152.438 32.5312C150.062 34.8438 147.25 36 144 36H96ZM96 12C92.625 12 89.7812 10.8437 87.4688 8.5312C85.1562 6.1562 84 3.3125 84 0H156C156 3.375 154.812 6.2188 152.438 8.5312C150.062 10.8437 147.25 12 144 12H96ZM168 60C168 56.6875 169.156 53.875 171.469 51.5625C173.844 49.1875 176.688 48 180 48H228V36H168V0H240C240 3.375 238.812 6.2188 236.438 8.5312C234.062 10.8437 231.25 12 228 12H180V24H240V60H168ZM252 60V0H264V48H324C324 51.375 322.812 54.2188 320.438 56.5312C318.062 58.8438 315.25 60 312 60H252ZM336 60V24H408V60H396V36H348V60H336ZM348 12C344.625 12 341.781 10.8437 339.469 8.5312C337.156 6.1562 336 3.3125 336 0H408C408 3.375 406.812 6.2188 404.438 8.5312C402.062 10.8437 399.25 12 396 12H348Z" fill="black"/>
<path opacity="0.8" d="M149.88 108.12C148.776 108.12 147.784 107.872 146.904 107.376C146.024 106.864 145.328 106.128 144.816 105.168C144.304 104.208 144.048 103.048 144.048 101.688C144.048 100.312 144.304 99.152 144.816 98.208C145.344 97.248 146.048 96.52 146.928 96.024C147.808 95.528 148.792 95.28 149.88 95.28C151.08 95.28 152.152 95.552 153.096 96.096C154.056 96.624 154.808 97.368 155.352 98.328C155.896 99.288 156.168 100.408 156.168 101.688C156.168 102.952 155.896 104.072 155.352 105.048C154.808 106.008 154.056 106.76 153.096 107.304C152.152 107.848 151.08 108.12 149.88 108.12ZM143.376 108V90.192H145.08V99.12L144.84 101.664L145.008 104.208V108H143.376ZM149.76 106.608C150.656 106.608 151.456 106.408 152.16 106.008C152.864 105.592 153.424 105.016 153.84 104.28C154.256 103.528 154.464 102.664 154.464 101.688C154.464 100.696 154.256 99.832 153.84 99.096C153.424 98.36 152.864 97.792 152.16 97.392C151.456 96.976 150.656 96.768 149.76 96.768C148.864 96.768 148.056 96.976 147.336 97.392C146.632 97.792 146.072 98.36 145.656 99.096C145.256 99.832 145.056 100.696 145.056 101.688C145.056 102.664 145.256 103.528 145.656 104.28C146.072 105.016 146.632 105.592 147.336 106.008C148.056 106.408 148.864 106.608 149.76 106.608ZM159.386 112.776C158.794 112.776 158.226 112.68 157.682 112.488C157.154 112.296 156.698 112.008 156.314 111.624L157.106 110.352C157.426 110.656 157.77 110.888 158.138 111.048C158.522 111.224 158.946 111.312 159.41 111.312C159.97 111.312 160.45 111.152 160.85 110.832C161.266 110.528 161.658 109.984 162.026 109.2L162.842 107.352L163.034 107.088L168.218 95.4H169.898L163.586 109.512C163.234 110.328 162.842 110.976 162.41 111.456C161.994 111.936 161.538 112.272 161.042 112.464C160.546 112.672 159.994 112.776 159.386 112.776ZM162.746 108.36L156.938 95.4H158.714L163.85 106.968L162.746 108.36Z" fill="black"/>
<path d="M190.648 93.84L196.456 77.856H196.552L202.264 93.84H190.648ZM194.056 73.728L180.712 108H185.368L189.208 97.68H203.704L207.448 108H212.488L199.096 73.728H194.056ZM235.741 108V83.184H231.661V97.2C231.661 98.32 231.501 99.36 231.181 100.32C230.893 101.248 230.445 102.064 229.837 102.768C229.229 103.472 228.461 104.016 227.533 104.4C226.637 104.784 225.565 104.976 224.317 104.976C222.749 104.976 221.517 104.528 220.621 103.632C219.725 102.736 219.277 101.52 219.277 99.984V83.184H215.197V99.504C215.197 100.848 215.325 102.08 215.581 103.2C215.869 104.288 216.349 105.232 217.021 106.032C217.693 106.832 218.573 107.456 219.661 107.904C220.749 108.32 222.109 108.528 223.741 108.528C225.565 108.528 227.149 108.176 228.493 107.472C229.837 106.736 230.941 105.6 231.805 104.064H231.901V108H235.741ZM247.533 83.184V75.744H243.453V83.184H239.229V86.784H243.453V102.576C243.453 103.728 243.565 104.656 243.789 105.36C244.013 106.064 244.349 106.608 244.797 106.992C245.277 107.376 245.885 107.648 246.621 107.808C247.389 107.936 248.301 108 249.357 108H252.477V104.4H250.605C249.965 104.4 249.437 104.384 249.021 104.352C248.637 104.288 248.333 104.176 248.109 104.016C247.885 103.856 247.725 103.632 247.629 103.344C247.565 103.056 247.533 102.672 247.533 102.192V86.784H252.477V83.184H247.533ZM259.986 95.616C259.986 94.112 260.178 92.784 260.562 91.632C260.978 90.448 261.538 89.456 262.242 88.656C262.946 87.856 263.762 87.248 264.69 86.832C265.65 86.416 266.658 86.208 267.714 86.208C268.77 86.208 269.762 86.416 270.69 86.832C271.65 87.248 272.482 87.856 273.186 88.656C273.89 89.456 274.434 90.448 274.818 91.632C275.234 92.784 275.442 94.112 275.442 95.616C275.442 97.12 275.234 98.464 274.818 99.648C274.434 100.8 273.89 101.776 273.186 102.576C272.482 103.344 271.65 103.936 270.69 104.352C269.762 104.768 268.77 104.976 267.714 104.976C266.658 104.976 265.65 104.768 264.69 104.352C263.762 103.936 262.946 103.344 262.242 102.576C261.538 101.776 260.978 100.8 260.562 99.648C260.178 98.464 259.986 97.12 259.986 95.616ZM255.666 95.616C255.666 97.44 255.922 99.136 256.434 100.704C256.946 102.272 257.714 103.648 258.738 104.832C259.762 105.984 261.026 106.896 262.53 107.568C264.034 108.208 265.762 108.528 267.714 108.528C269.698 108.528 271.426 108.208 272.898 107.568C274.402 106.896 275.666 105.984 276.69 104.832C277.714 103.648 278.482 102.272 278.994 100.704C279.506 99.136 279.762 97.44 279.762 95.616C279.762 93.792 279.506 92.096 278.994 90.528C278.482 88.928 277.714 87.552 276.69 86.4C275.666 85.216 274.402 84.288 272.898 83.616C271.426 82.944 269.698 82.608 267.714 82.608C265.762 82.608 264.034 82.944 262.53 83.616C261.026 84.288 259.762 85.216 258.738 86.4C257.714 87.552 256.946 88.928 256.434 90.528C255.922 92.096 255.666 93.792 255.666 95.616Z" fill="#464646"/>
<path d="M290.236 83.184V75.744H286.156V83.184H281.932V86.784H286.156V102.576C286.156 103.728 286.268 104.656 286.492 105.36C286.716 106.064 287.052 106.608 287.5 106.992C287.98 107.376 288.588 107.648 289.324 107.808C290.092 107.936 291.004 108 292.06 108H295.18V104.4H293.308C292.668 104.4 292.14 104.384 291.724 104.352C291.34 104.288 291.036 104.176 290.812 104.016C290.588 103.856 290.428 103.632 290.332 103.344C290.268 103.056 290.236 102.672 290.236 102.192V86.784H295.18V83.184H290.236ZM299.569 83.184V108H303.649V96.96C303.649 95.36 303.809 93.952 304.129 92.736C304.449 91.488 304.961 90.432 305.665 89.568C306.369 88.704 307.297 88.048 308.449 87.6C309.601 87.152 310.993 86.928 312.625 86.928V82.608C310.417 82.544 308.593 82.992 307.153 83.952C305.713 84.912 304.497 86.4 303.505 88.416H303.409V83.184H299.569ZM337.681 107.904C336.977 108.32 336.001 108.528 334.753 108.528C333.697 108.528 332.849 108.24 332.209 107.664C331.601 107.056 331.297 106.08 331.297 104.736C330.177 106.08 328.865 107.056 327.361 107.664C325.889 108.24 324.289 108.528 322.561 108.528C321.441 108.528 320.369 108.4 319.345 108.144C318.353 107.888 317.489 107.488 316.753 106.944C316.017 106.4 315.425 105.696 314.977 104.832C314.561 103.936 314.353 102.864 314.353 101.616C314.353 100.208 314.593 99.056 315.073 98.16C315.553 97.264 316.177 96.544 316.945 96C317.745 95.424 318.641 94.992 319.633 94.704C320.657 94.416 321.697 94.176 322.753 93.984C323.873 93.76 324.929 93.6 325.921 93.504C326.945 93.376 327.841 93.216 328.609 93.024C329.377 92.8 329.985 92.496 330.433 92.112C330.881 91.696 331.105 91.104 331.105 90.336C331.105 89.44 330.929 88.72 330.577 88.176C330.257 87.632 329.825 87.216 329.281 86.928C328.769 86.64 328.177 86.448 327.505 86.352C326.865 86.256 326.225 86.208 325.585 86.208C323.857 86.208 322.417 86.544 321.265 87.216C320.113 87.856 319.489 89.088 319.393 90.912H315.313C315.377 89.376 315.697 88.08 316.273 87.024C316.849 85.968 317.617 85.12 318.577 84.48C319.537 83.808 320.625 83.328 321.841 83.04C323.089 82.752 324.417 82.608 325.825 82.608C326.945 82.608 328.049 82.688 329.137 82.848C330.257 83.008 331.265 83.344 332.161 83.856C333.057 84.336 333.777 85.024 334.321 85.92C334.865 86.816 335.137 87.984 335.137 89.424V102.192C335.137 103.152 335.185 103.856 335.281 104.304C335.409 104.752 335.793 104.976 336.433 104.976C336.785 104.976 337.201 104.896 337.681 104.736V107.904ZM331.057 95.184C330.545 95.568 329.873 95.856 329.041 96.048C328.209 96.208 327.329 96.352 326.401 96.48C325.505 96.576 324.593 96.704 323.665 96.864C322.737 96.992 321.905 97.216 321.169 97.536C320.433 97.856 319.825 98.32 319.345 98.928C318.897 99.504 318.673 100.304 318.673 101.328C318.673 102 318.801 102.576 319.057 103.056C319.345 103.504 319.697 103.872 320.113 104.16C320.561 104.448 321.073 104.656 321.649 104.784C322.225 104.912 322.833 104.976 323.473 104.976C324.817 104.976 325.969 104.8 326.929 104.448C327.889 104.064 328.673 103.6 329.281 103.056C329.889 102.48 330.337 101.872 330.625 101.232C330.913 100.56 331.057 99.936 331.057 99.36V95.184ZM344.454 95.808C344.454 94.592 344.582 93.408 344.838 92.256C345.094 91.104 345.51 90.08 346.086 89.184C346.662 88.288 347.43 87.568 348.39 87.024C349.35 86.48 350.518 86.208 351.894 86.208C353.302 86.208 354.502 86.48 355.494 87.024C356.486 87.536 357.286 88.224 357.894 89.088C358.534 89.952 358.998 90.96 359.286 92.112C359.574 93.232 359.718 94.4 359.718 95.616C359.718 96.768 359.574 97.904 359.286 99.024C359.03 100.144 358.598 101.152 357.99 102.048C357.382 102.912 356.598 103.616 355.638 104.16C354.678 104.704 353.51 104.976 352.134 104.976C350.822 104.976 349.67 104.72 348.678 104.208C347.718 103.696 346.918 103.008 346.278 102.144C345.67 101.28 345.206 100.304 344.886 99.216C344.598 98.096 344.454 96.96 344.454 95.808ZM363.654 108V73.728H359.574V86.496H359.478C359.03 85.76 358.47 85.152 357.798 84.672C357.158 84.16 356.47 83.76 355.734 83.472C354.998 83.152 354.262 82.928 353.526 82.8C352.79 82.672 352.102 82.608 351.462 82.608C349.574 82.608 347.91 82.96 346.47 83.664C345.062 84.336 343.878 85.264 342.918 86.448C341.99 87.6 341.286 88.96 340.806 90.528C340.358 92.096 340.134 93.76 340.134 95.52C340.134 97.28 340.374 98.944 340.854 100.512C341.334 102.08 342.038 103.456 342.966 104.64C343.926 105.824 345.11 106.768 346.518 107.472C347.958 108.176 349.638 108.528 351.558 108.528C353.286 108.528 354.87 108.224 356.31 107.616C357.75 107.008 358.806 106.016 359.478 104.64H359.574V108H363.654ZM387.163 93.216H372.907C372.971 92.256 373.179 91.36 373.531 90.528C373.883 89.664 374.363 88.912 374.971 88.272C375.579 87.632 376.299 87.136 377.131 86.784C377.995 86.4 378.955 86.208 380.011 86.208C381.035 86.208 381.963 86.4 382.795 86.784C383.659 87.136 384.395 87.632 385.003 88.272C385.643 88.88 386.139 89.616 386.491 90.48C386.875 91.344 387.099 92.256 387.163 93.216ZM391.099 100.128H387.067C386.715 101.76 385.979 102.976 384.859 103.776C383.771 104.576 382.363 104.976 380.635 104.976C379.291 104.976 378.123 104.752 377.131 104.304C376.139 103.856 375.323 103.264 374.683 102.528C374.043 101.76 373.579 100.896 373.291 99.936C373.003 98.944 372.875 97.904 372.907 96.816H391.483C391.547 95.312 391.403 93.728 391.051 92.064C390.731 90.4 390.123 88.864 389.227 87.456C388.363 86.048 387.195 84.896 385.723 84C384.283 83.072 382.459 82.608 380.251 82.608C378.555 82.608 376.987 82.928 375.547 83.568C374.139 84.208 372.907 85.104 371.851 86.256C370.827 87.408 370.027 88.768 369.451 90.336C368.875 91.904 368.587 93.632 368.587 95.52C368.651 97.408 368.923 99.152 369.403 100.752C369.915 102.352 370.667 103.728 371.659 104.88C372.651 106.032 373.867 106.928 375.307 107.568C376.779 108.208 378.507 108.528 380.491 108.528C383.307 108.528 385.643 107.824 387.499 106.416C389.355 105.008 390.555 102.912 391.099 100.128ZM395.569 83.184V108H399.649V96.96C399.649 95.36 399.809 93.952 400.129 92.736C400.449 91.488 400.961 90.432 401.665 89.568C402.369 88.704 403.297 88.048 404.449 87.6C405.601 87.152 406.993 86.928 408.625 86.928V82.608C406.417 82.544 404.593 82.992 403.153 83.952C401.713 84.912 400.497 86.4 399.505 88.416H399.409V83.184H395.569Z" fill="url(#paint0_linear_261_2)"/>
<defs>
<linearGradient id="paint0_linear_261_2" x1="270.57" y1="98.684" x2="334.257" y2="98.684" gradientUnits="userSpaceOnUse">
<stop stop-color="#B91718"/>
<stop offset="1" stop-color="#7E0505"/>
</linearGradient>
</defs>
</svg>
