<?xml version="1.0" encoding="utf-8"?><svg xmlns="http://www.w3.org/2000/svg" xmlns:xlink="http://www.w3.org/1999/xlink"><symbol class="abi abi-chevron-left" viewBox="0 0 16 16" id="arrow-left" xmlns="http://www.w3.org/2000/svg"><path fill-rule="evenodd" d="M11.354 1.646a.5.5 0 010 .708L5.707 8l5.647 5.646a.5.5 0 01-.708.708l-6-6a.5.5 0 010-.708l6-6a.5.5 0 01.708 0z"/></symbol><symbol class="bbi bbi-chevron-right" viewBox="0 0 16 16" id="arrow-right" xmlns="http://www.w3.org/2000/svg"><path fill-rule="evenodd" d="M4.646 1.646a.5.5 0 01.708 0l6 6a.5.5 0 010 .708l-6 6a.5.5 0 01-.708-.708L10.293 8 4.646 2.354a.5.5 0 010-.708z"/></symbol><symbol class="cbi cbi-chevron-up" viewBox="0 0 16 16" id="arrow-up" xmlns="http://www.w3.org/2000/svg"><path fill-rule="evenodd" d="M7.646 4.646a.5.5 0 01.708 0l6 6a.5.5 0 01-.708.708L8 5.707l-5.646 5.647a.5.5 0 01-.708-.708l6-6z"/></symbol><symbol viewBox="0 0 22 19" id="burger" xmlns="http://www.w3.org/2000/svg"><path d="M0 0h22v2.426H0V0zm0 7.927h22v2.426H0V7.927zm0 7.926h22v2.426H0v-2.426z"/></symbol><symbol viewBox="0 0 38 28" id="check" xmlns="http://www.w3.org/2000/svg"><path fill-rule="evenodd" clip-rule="evenodd" d="M36.744 1.506a2.938 2.938 0 010 4.156L15.911 26.495a2.938 2.938 0 01-4.156 0L1.34 16.078a2.938 2.938 0 114.155-4.155l8.34 8.339L32.588 1.506a2.938 2.938 0 014.155 0z"/></symbol><symbol viewBox="0 0 24 24" id="close" xmlns="http://www.w3.org/2000/svg"><path d="M4.293 18.293L10.586 12 4.293 5.707a1 1 0 011.414-1.414L12 10.586l6.293-6.293a1 1 0 111.414 1.414L13.414 12l6.293 6.293a1 1 0 11-1.414 1.414L12 13.414l-6.293 6.293a1 1 0 01-1.414-1.414z"/></symbol><symbol viewBox="0 0 35 34" id="telegram" xmlns="http://www.w3.org/2000/svg"><path d="M17.986 1.225c4.213 0 8.179 1.634 11.159 4.596a15.541 15.541 0 014.623 11.09 15.54 15.54 0 01-4.623 11.09 15.733 15.733 0 01-11.159 4.596 15.733 15.733 0 01-11.158-4.595 15.542 15.542 0 01-4.623-11.09c0-4.188 1.644-8.13 4.623-11.091a15.733 15.733 0 0111.159-4.596zm0-1.225C8.596 0 .982 7.567.982 16.901s7.614 16.901 17.005 16.901c9.39 0 17.004-7.567 17.004-16.9C34.99 7.566 27.377 0 17.986 0z"/><path d="M14.318 23.937a.421.421 0 01-.39-.265l-1.87-5.035a.397.397 0 01.246-.52.4.4 0 01.524.244l1.88 5.035a.397.397 0 01-.246.52c-.052.021-.103.021-.144.021z"/><path d="M14.338 23.999a.405.405 0 01-.41-.43l.184-4.156a.411.411 0 01.237-.347.417.417 0 01.421.041l2.507 1.89a.421.421 0 01.164.316.44.44 0 01-.143.327l-2.692 2.257a.412.412 0 01-.268.102zm.566-3.769l-.113 2.441 1.582-1.338-1.47-1.103z"/><path d="M21.408 24.744a1.47 1.47 0 01-.925-.316l-6.195-4.678a.401.401 0 01-.165-.306c0-.122.052-.245.144-.316l4.51-3.932-6.113 3.656a.438.438 0 01-.339.04l-4.418-1.48a.955.955 0 01-.657-.889.94.94 0 01.616-.909L24.983 9.15a.948.948 0 01.977.184.97.97 0 01.298.95L22.908 23.6c-.123.5-.493.9-.986 1.073-.165.04-.34.071-.514.071zm-6.226-5.34l5.795 4.37a.713.713 0 00.667.102.73.73 0 00.463-.5l3.35-13.317c.02-.071-.021-.112-.042-.143a.146.146 0 00-.144-.03L8.154 16.37a.144.144 0 00-.093.133c0 .04.02.102.093.133l4.233 1.42 9.884-5.904a.407.407 0 01.545.113.409.409 0 01-.062.551l-7.572 6.587z"/></symbol><symbol viewBox="0 0 34 34" id="whatsapp" xmlns="http://www.w3.org/2000/svg"><path d="M18.118.01c.605.092 1.22.163 1.826.265a16.506 16.506 0 017.53 3.345c3.314 2.61 5.448 5.986 6.197 10.116 1.006 5.547-.43 10.462-4.257 14.632-2.483 2.703-5.571 4.375-9.183 5.079a16.852 16.852 0 01-5.211.193 16.6 16.6 0 01-6.484-2.13c-.226-.133-.42-.133-.657-.062-2.031.632-4.063 1.244-6.094 1.866a.58.58 0 00-.123.04c-.287.103-.564.113-.8-.111-.236-.225-.226-.5-.144-.796.585-2.11 1.17-4.221 1.765-6.332.061-.214.051-.388-.072-.581A16.26 16.26 0 01.39 20.455c-.144-.683-.216-1.386-.318-2.08-.02-.102-.041-.214-.072-.316v-2.304c.02-.092.051-.184.062-.286.071-.571.112-1.162.225-1.723.831-4.181 2.945-7.597 6.32-10.218C8.803 1.825 11.275.724 14.024.265 14.63.163 15.245.092 15.851 0c.77.01 1.518.01 2.267.01zM2.278 31.805c.102-.03.143-.04.184-.051 1.785-.55 3.58-1.081 5.366-1.642.4-.122.739-.102 1.098.123 1.908 1.152 3.98 1.845 6.207 2.11a15.48 15.48 0 006.514-.58c7.5-2.336 12.209-9.862 10.742-17.662-.82-4.395-3.15-7.822-6.905-10.269C22.314 1.764 18.805 1 15.03 1.458c-3.037.367-5.745 1.54-8.074 3.498-3.13 2.63-4.986 5.985-5.51 10.034a15.151 15.151 0 00.278 5.394c.39 1.693 1.036 3.284 1.98 4.742.215.346.266.673.143 1.06-.225.734-.42 1.479-.626 2.213-.307 1.111-.615 2.233-.943 3.406z"/><path d="M21.79 27.135c-2.77-.051-5.303-.877-7.581-2.417-3.498-2.366-5.992-5.547-7.571-9.432-.934-2.295-.595-4.497.605-6.598.38-.663.872-1.264 1.354-1.866.144-.173.42-.296.646-.326a13.604 13.604 0 011.704-.082c.348 0 .625.204.81.51.841 1.356 1.631 2.733 2.185 4.232.246.673.093 1.305-.277 1.876-.297.459-.667.877-1.026 1.285-.133.163-.184.296-.113.5.277.785.78 1.427 1.334 2.029 1.508 1.631 3.273 2.947 5.212 4.017.574.317.657.317 1.098-.173a40.273 40.273 0 001.682-2.03c.441-.57.975-.774 1.652-.52.318.113.615.286.913.46 1.2.724 2.38 1.468 3.58 2.192.319.194.473.449.41.816-.215 1.254-.625 2.437-1.456 3.446-1.016 1.224-2.36 1.795-3.909 1.979-.41.05-.83.071-1.251.102zm-.246-1.336c1.283.01 2.268-.123 3.191-.592 1.354-.693 1.95-1.907 2.257-3.303.01-.062-.072-.184-.133-.225-1.16-.724-2.319-1.438-3.478-2.172-.277-.173-.42-.112-.616.133-.564.703-1.098 1.438-1.764 2.04-1.047.948-1.396.896-2.432.366a20.112 20.112 0 01-5.755-4.384c-.708-.775-1.303-1.632-1.611-2.652-.164-.56-.133-1.03.328-1.468.35-.316.636-.704.913-1.081s.37-.785.123-1.234a161.037 161.037 0 01-1.692-3.243c-.144-.285-.339-.346-.626-.336-.523.02-.954.153-1.221.653-.328.622-.749 1.193-1.036 1.825-.677 1.509-.8 3.08-.154 4.63 1.354 3.242 3.365 6.005 6.155 8.188 2.299 1.815 4.894 2.814 7.551 2.855z"/></symbol></svg>